<svg width="40" height="40" viewBox="0 0 40 40" fill="none" xmlns="http://www.w3.org/2000/svg">
<rect width="40" height="40" rx="5" fill="#EFEEEE"/>
<mask id="path-2-inside-1_1_62" fill="white">
<path fill-rule="evenodd" clip-rule="evenodd" d="M18.5 10C17.1193 10 16 11.1193 16 12.5H12.25C11.5596 12.5 11 13.0596 11 13.75C11 14.4404 11.5596 15 12.25 15H26.75C27.4404 15 28 14.4404 28 13.75C28 13.0596 27.4404 12.5 26.75 12.5H23C23 11.1193 21.8807 10 20.5 10H18.5Z"/>
</mask>
<path fill-rule="evenodd" clip-rule="evenodd" d="M18.5 10C17.1193 10 16 11.1193 16 12.5H12.25C11.5596 12.5 11 13.0596 11 13.75C11 14.4404 11.5596 15 12.25 15H26.75C27.4404 15 28 14.4404 28 13.75C28 13.0596 27.4404 12.5 26.75 12.5H23C23 11.1193 21.8807 10 20.5 10H18.5Z" fill="#D84844"/>
<path d="M16 12.5V13.5H17V12.5H16ZM23 12.5H22V13.5H23V12.5ZM17 12.5C17 11.6716 17.6716 11 18.5 11V9C16.567 9 15 10.567 15 12.5H17ZM12.25 13.5H16V11.5H12.25V13.5ZM12 13.75C12 13.6119 12.1119 13.5 12.25 13.5V11.5C11.0074 11.5 10 12.5074 10 13.75H12ZM12.25 14C12.1119 14 12 13.8881 12 13.75H10C10 14.9926 11.0074 16 12.25 16V14ZM26.75 14H12.25V16H26.75V14ZM27 13.75C27 13.8881 26.8881 14 26.75 14V16C27.9926 16 29 14.9926 29 13.75H27ZM26.75 13.5C26.8881 13.5 27 13.6119 27 13.75H29C29 12.5074 27.9926 11.5 26.75 11.5V13.5ZM23 13.5H26.75V11.5H23V13.5ZM20.5 11C21.3284 11 22 11.6716 22 12.5H24C24 10.567 22.433 9 20.5 9V11ZM18.5 11H20.5V9H18.5V11Z" fill="#9F5852" mask="url(#path-2-inside-1_1_62)"/>
<path d="M26.5 16.5H12.5L13.358 27.6534C13.4381 28.6954 14.307 29.5 15.3521 29.5H23.6479C24.693 29.5 25.5619 28.6954 25.642 27.6534L26.5 16.5Z" fill="#D84844" stroke="#9F5852"/>
</svg>
