<svg width="21" height="20" viewBox="0 0 21 20" fill="none" xmlns="http://www.w3.org/2000/svg">
<path fill-rule="evenodd" clip-rule="evenodd" d="M10.5 20C16.299 20 21 15.5228 21 10C21 4.47717 16.299 0 10.5 0C4.70105 0 0 4.47717 0 10C0 15.5228 4.70105 20 10.5 20ZM7.5 14C8.32837 14 9 13.3284 9 12.5C9 11.6716 8.32837 11 7.5 11C6.67163 11 6 11.6716 6 12.5C6 13.3284 6.67163 14 7.5 14ZM10 6.5C10 7.32843 9.32837 8 8.5 8C7.67163 8 7 7.32843 7 6.5C7 5.67157 7.67163 5 8.5 5C9.32837 5 10 5.67157 10 6.5ZM14.5 13C15.3284 13 16 12.3284 16 11.5C16 10.6716 15.3284 10 14.5 10C13.6716 10 13 10.6716 13 11.5C13 12.3284 13.6716 13 14.5 13Z" fill="#D8A04F"/>
</svg>
