<svg width="20" height="19" viewBox="0 0 20 19" fill="none" xmlns="http://www.w3.org/2000/svg">
<path d="M9.04536 1.06049C9.33742 0.124188 10.6626 0.124186 10.9546 1.06049L12.4751 5.93506C12.6054 6.35279 12.9922 6.63729 13.4298 6.63729H18.4343C19.3931 6.63729 19.8023 7.85605 19.0377 8.43467L14.9197 11.5513C14.5835 11.8057 14.443 12.2438 14.5686 12.6464L16.1248 17.6355C16.4144 18.5641 15.3423 19.3177 14.5667 18.7307L10.6035 15.7313C10.2465 15.4611 9.75349 15.4611 9.39653 15.7313L5.43333 18.7307C4.65775 19.3177 3.58559 18.5641 3.87523 17.6355L5.43145 12.6464C5.55702 12.2438 5.41655 11.8057 5.08028 11.5513L0.962253 8.43467C0.197712 7.85605 0.606914 6.63729 1.56573 6.63729H6.57024C7.00781 6.63729 7.39457 6.35279 7.52487 5.93506L9.04536 1.06049Z" fill="#FADA58"/>
</svg>
