<svg width="19" height="21" viewBox="0 0 19 21" fill="none" xmlns="http://www.w3.org/2000/svg">
<path fill-rule="evenodd" clip-rule="evenodd" d="M6 3.5C6 2.11929 7.11929 1 8.5 1H10.5C11.8807 1 13 2.11929 13 3.5H16.75C17.4404 3.5 18 4.05964 18 4.75C18 5.44036 17.4404 6 16.75 6H2.25C1.55964 6 1 5.44036 1 4.75C1 4.05964 1.55964 3.5 2.25 3.5H6ZM2.5 7.5H16.5L15.642 18.6534C15.5619 19.6954 14.693 20.5 13.6479 20.5H5.35206C4.30699 20.5 3.43811 19.6954 3.35795 18.6534L2.5 7.5Z" fill="#D84844"/>
<path d="M6 3.5V4H6.5V3.5H6ZM13 3.5H12.5V4H13V3.5ZM16.5 7.5L16.9985 7.53835L17.0399 7H16.5V7.5ZM2.5 7.5V7H1.96006L2.00147 7.53835L2.5 7.5ZM15.642 18.6534L16.1406 18.6917L16.1406 18.6917L15.642 18.6534ZM3.35795 18.6534L3.85648 18.615L3.85648 18.615L3.35795 18.6534ZM8.5 0.5C6.84315 0.5 5.5 1.84315 5.5 3.5H6.5C6.5 2.39543 7.39543 1.5 8.5 1.5V0.5ZM10.5 0.5H8.5V1.5H10.5V0.5ZM13.5 3.5C13.5 1.84315 12.1569 0.5 10.5 0.5V1.5C11.6046 1.5 12.5 2.39543 12.5 3.5H13.5ZM16.75 3H13V4H16.75V3ZM18.5 4.75C18.5 3.7835 17.7165 3 16.75 3V4C17.1642 4 17.5 4.33579 17.5 4.75H18.5ZM16.75 6.5C17.7165 6.5 18.5 5.7165 18.5 4.75H17.5C17.5 5.16421 17.1642 5.5 16.75 5.5V6.5ZM2.25 6.5H16.75V5.5H2.25V6.5ZM0.5 4.75C0.5 5.7165 1.2835 6.5 2.25 6.5V5.5C1.83579 5.5 1.5 5.16421 1.5 4.75H0.5ZM2.25 3C1.2835 3 0.5 3.7835 0.5 4.75H1.5C1.5 4.33579 1.83579 4 2.25 4V3ZM6 3H2.25V4H6V3ZM16.5 7H2.5V8H16.5V7ZM16.1406 18.6917L16.9985 7.53835L16.0015 7.46165L15.1435 18.615L16.1406 18.6917ZM13.6479 21C14.9543 21 16.0404 19.9942 16.1406 18.6917L15.1435 18.615C15.0834 19.3965 14.4317 20 13.6479 20V21ZM5.35206 21H13.6479V20H5.35206V21ZM2.85943 18.6917C2.95962 19.9942 4.04572 21 5.35206 21V20C4.56826 20 3.9166 19.3965 3.85648 18.615L2.85943 18.6917ZM2.00147 7.53835L2.85943 18.6917L3.85648 18.615L2.99853 7.46165L2.00147 7.53835Z" fill="#9F5852"/>
</svg>
